<?xml version="1.0" standalone="no"?>
<!DOCTYPE svg PUBLIC "-//W3C//DTD SVG 20010904//EN"
 "http://www.w3.org/TR/2001/REC-SVG-20010904/DTD/svg10.dtd">
<svg version="1.0" xmlns="http://www.w3.org/2000/svg"
 width="296.000000pt" height="296.000000pt" viewBox="0 0 296.000000 296.000000"
 preserveAspectRatio="xMidYMid meet">
<metadata>
Created by potrace 1.14, written by Peter Selinger 2001-2017
</metadata>
<g transform="translate(0.000000,296.000000) scale(0.100000,-0.100000)"
fill="#000000" stroke="none">
<path d="M1330 2534 c-112 -17 -131 -21 -204 -46 -204 -70 -383 -196 -515
-362 -257 -323 -308 -782 -127 -1151 l43 -87 -71 6 c-167 14 -227 57 -201 142
7 23 20 52 29 65 37 54 0 129 -65 129 -58 0 -124 -96 -136 -200 -22 -189 151
-299 478 -304 l86 -1 76 -72 c217 -202 495 -307 789 -297 48 1 96 5 105 8 10
3 36 8 58 11 181 27 385 132 539 276 213 199 327 443 350 747 2 26 12 41 46
68 87 69 180 173 223 251 68 123 48 257 -49 323 -142 99 -263 96 -264 -5 0
-46 24 -72 84 -89 114 -33 134 -85 71 -179 -19 -29 -54 -71 -78 -95 l-45 -42
-12 52 c-77 321 -276 584 -560 737 -84 45 -229 95 -304 105 -27 4 -53 9 -57
11 -18 11 -212 10 -289 -1z m60 -369 l-2 -196 -46 6 c-26 2 -69 7 -97 10 -27
3 -84 13 -126 22 l-77 15 47 80 c55 95 139 185 212 227 93 53 90 60 89 -164z
m238 171 c26 -13 68 -42 93 -64 44 -39 129 -154 162 -219 l17 -31 -48 -11
c-80 -18 -191 -33 -267 -35 l-29 -1 -1 180 c0 99 1 186 3 193 6 17 16 15 70
-12z m482 -211 l22 -23 -30 -16 c-17 -9 -33 -16 -36 -16 -3 0 -18 24 -32 53
-15 28 -36 65 -48 82 -19 28 -17 27 41 -13 33 -24 71 -54 83 -67z m-1188 23
c-20 -40 -37 -74 -38 -76 0 -1 -18 5 -39 14 -32 13 -36 18 -24 29 30 29 124
105 131 105 3 0 -10 -33 -30 -72z m-130 -221 l38 -16 -14 -40 c-17 -48 -26
-94 -40 -206 -5 -33 -9 -69 -11 -80 -2 -11 -4 -28 -4 -37 -1 -16 -13 -18 -107
-18 l-107 0 6 48 c16 127 59 247 127 357 21 33 23 34 48 21 15 -8 44 -21 64
-29z m1467 21 c61 -97 124 -272 133 -370 l5 -48 -109 0 c-79 0 -108 3 -109 13
0 6 -2 23 -4 37 -1 14 -6 54 -9 89 -4 35 -8 67 -10 70 -2 3 -7 23 -10 44 -3
22 -11 60 -18 85 -7 27 -8 47 -2 49 5 2 32 14 59 27 62 30 58 30 74 4z m-1184
-103 c17 -3 37 -8 45 -10 8 -2 44 -7 80 -11 96 -10 122 -12 158 -13 l32 -1 0
-140 0 -140 -230 0 -231 0 6 73 c3 39 15 112 25 162 11 49 20 91 20 93 0 3 25
0 95 -13z m890 -12 c5 -16 9 -32 11 -38 13 -50 34 -186 36 -235 1 -30 -4 -30
-229 -28 l-228 3 1 132 c0 73 2 135 5 137 2 2 38 7 79 10 94 9 204 24 250 35
58 15 67 13 75 -16z m-1209 -475 c3 -4 8 -24 10 -45 9 -107 18 -156 44 -257
15 -61 29 -117 31 -125 4 -16 -39 -27 -96 -26 -25 0 -35 9 -67 62 -63 104
-113 246 -125 353 l-5 45 101 0 c55 -1 103 -4 107 -7z m632 -155 l2 -161 -36
-12 c-43 -14 -338 -89 -341 -86 -5 5 -55 186 -59 216 -2 19 -6 44 -9 55 -2 11
-7 49 -10 85 l-6 65 228 -1 228 0 3 -161z m618 158 c16 -2 2 -72 -16 -82 -54
-31 -407 -179 -427 -179 -13 0 -9 250 4 258 9 6 392 8 439 3z m380 -83 c-25
-155 -128 -354 -248 -479 -69 -71 -208 -171 -156 -111 47 52 114 220 157 390
l26 103 60 33 c33 18 83 47 110 64 28 17 51 31 53 31 2 1 1 -14 -2 -31z m-441
-280 c-69 -210 -191 -374 -327 -442 -28 -14 -54 -24 -57 -22 -3 2 -6 90 -6
196 l1 192 139 53 c77 28 169 66 205 82 36 17 67 29 69 27 2 -2 -9 -40 -24
-86z m-555 -298 c0 -93 -3 -170 -6 -170 -26 0 -125 62 -172 108 -72 69 -129
150 -110 156 7 2 60 16 118 30 58 14 117 30 130 35 14 5 28 10 33 10 4 1 7
-75 7 -169z m-453 20 c34 -52 28 -55 -26 -13 -38 30 -45 39 -32 44 26 11 35 6
58 -31z"/>
</g>
</svg>
